<svg xmlns="http://www.w3.org/2000/svg" viewBox="0 0 1600 1200" preserveAspectRatio="xMidYMid slice">
  <defs>
    <linearGradient id="bg" x1="0%" y1="0%" x2="100%" y2="100%">
      <stop offset="0%" stop-color="#d7e7f2" />
      <stop offset="50%" stop-color="#b8d2df" />
      <stop offset="100%" stop-color="#87aab8" />
    </linearGradient>
    <radialGradient id="glowA" cx="20%" cy="18%" r="55%">
      <stop offset="0%" stop-color="#ffffff" stop-opacity="0.62" />
      <stop offset="100%" stop-color="#ffffff" stop-opacity="0" />
    </radialGradient>
    <radialGradient id="glowB" cx="78%" cy="82%" r="48%">
      <stop offset="0%" stop-color="#f8fbfd" stop-opacity="0.45" />
      <stop offset="100%" stop-color="#f8fbfd" stop-opacity="0" />
    </radialGradient>
    <pattern id="mesh" width="120" height="120" patternUnits="userSpaceOnUse">
      <path d="M0 60 H120 M60 0 V120" fill="none" stroke="#ffffff" stroke-opacity="0.08" stroke-width="1" />
      <circle cx="20" cy="20" r="4" fill="#ffffff" fill-opacity="0.1" />
      <circle cx="100" cy="74" r="3" fill="#ffffff" fill-opacity="0.08" />
      <circle cx="68" cy="102" r="2.5" fill="#ffffff" fill-opacity="0.06" />
    </pattern>
  </defs>
  <rect width="1600" height="1200" fill="url(#bg)" />
  <rect width="1600" height="1200" fill="url(#mesh)" />
  <rect width="1600" height="1200" fill="url(#glowA)" />
  <rect width="1600" height="1200" fill="url(#glowB)" />
  <path d="M0 1010 C250 910 430 900 620 980 S1020 1140 1600 920 V1200 H0 Z" fill="#6f95a6" fill-opacity="0.18" />
  <path d="M0 170 C290 80 470 120 720 250 S1160 470 1600 260 V0 H0 Z" fill="#ffffff" fill-opacity="0.16" />
</svg>
